<svg width="18" height="18" viewBox="0 0 18 18" fill="none" xmlns="http://www.w3.org/2000/svg">
<circle cx="9.11142" cy="8.56002" r="8.5" transform="rotate(-0.406934 9.11142 8.56002)" fill="#1D212D"/>
<path d="M7.79925 5.71139C8.07356 5.44258 8.50345 5.41752 8.81207 5.64258L8.88101 5.69896L11.8043 8.48382C11.9531 8.62475 12.0377 8.81921 12.0391 9.02256C12.0404 9.19637 11.9805 9.36471 11.8713 9.4995L11.8126 9.56397L8.92368 12.3953C8.62193 12.6791 8.14581 12.6788 7.84671 12.3932C7.56226 12.1223 7.53718 11.6904 7.7784 11.3856L7.83417 11.3223L10.1671 9.03583L7.80193 6.78278L8.04195 6.53354L7.79683 6.77782C7.51978 6.50208 7.50022 6.07349 7.73945 5.77727L7.79925 5.71139Z" fill="white"/>
</svg>
