<svg
  xmlns="http://www.w3.org/2000/svg"
  version="1.1"
  xmlns:xlink="http://www.w3.org/1999/xlink"
  xmlns:svgjs="http://svgjs.dev/svgjs"
  viewBox="0 0 23.25235485999198 11.220876656742123"
>
  <g transform="matrix(1,0,0,1,1.3281445930819267,7.762919563660197)">
    <rect
      width="23.25235485999198"
      height="23.25235485999198"
      x="-1.3281445930819267"
      y="-13.778658665285125"
      fill="#ffffff"
    ></rect>
    <g>
      <path
        d=" M 7.577751342773438 0.8189999999999998 L 7.577751342773438 1.0739999999999998 L 6.818751342773438 1.0739999999999998 L 6.818751342773438 0.008999999999999897 L 7.564251342773438 0.008999999999999897 L 7.564251342773438 0.2639999999999998 L 7.111251342773438 0.2639999999999998 L 7.111251342773438 0.4139999999999998 L 7.498251342773438 0.4139999999999998 L 7.498251342773438 0.6509999999999998 L 7.111251342773438 0.6509999999999998 L 7.111251342773438 0.8189999999999998 L 7.577751342773438 0.8189999999999998 M 7.6437491455078135 0.5324999999999999 Q 7.6437491455078135 0.43499999999999983 7.680499145507813 0.34124999999999983 Q 7.717249145507813 0.24749999999999983 7.787749145507813 0.17099999999999982 Q 7.858249145507813 0.0944999999999998 7.959499145507813 0.04874999999999985 Q 8.060749145507813 0.0029999999999998916 8.188249145507813 0.0029999999999998916 Q 8.341249145507813 0.0029999999999998916 8.455249145507814 0.06674999999999986 Q 8.569249145507813 0.13049999999999984 8.624749145507813 0.23549999999999982 L 8.401249145507814 0.39449999999999985 Q 8.381749145507813 0.34199999999999986 8.344999145507813 0.3134999999999998 Q 8.308249145507814 0.2849999999999998 8.265499145507814 0.2737499999999998 Q 8.222749145507812 0.26249999999999984 8.182249145507813 0.26249999999999984 Q 8.119249145507814 0.26249999999999984 8.073499145507814 0.2872499999999998 Q 8.027749145507814 0.31199999999999983 7.998499145507813 0.3524999999999998 Q 7.969249145507813 0.3929999999999998 7.954999145507813 0.4424999999999998 Q 7.940749145507813 0.4919999999999999 7.940749145507813 0.5414999999999999 Q 7.940749145507813 0.5969999999999998 7.957249145507813 0.6479999999999999 Q 7.9737491455078136 0.6989999999999998 8.005249145507813 0.7387499999999998 Q 8.036749145507812 0.7784999999999999 8.082499145507812 0.8009999999999998 Q 8.128249145507812 0.8234999999999999 8.185249145507813 0.8234999999999999 Q 8.225749145507812 0.8234999999999999 8.267749145507814 0.8107499999999999 Q 8.309749145507814 0.7979999999999998 8.344249145507813 0.7694999999999999 Q 8.378749145507813 0.7409999999999999 8.396749145507814 0.6929999999999998 L 8.635249145507814 0.8354999999999998 Q 8.603749145507813 0.9134999999999999 8.530249145507813 0.9689999999999999 Q 8.456749145507812 1.0244999999999997 8.363749145507812 1.0537499999999997 Q 8.270749145507812 1.0829999999999997 8.179249145507812 1.0829999999999997 Q 8.060749145507813 1.0829999999999997 7.962499145507813 1.03575 Q 7.864249145507813 0.9884999999999998 7.792999145507813 0.9097499999999998 Q 7.721749145507813 0.8309999999999998 7.682749145507813 0.7327499999999998 Q 7.6437491455078135 0.6344999999999998 7.6437491455078135 0.5324999999999999 M 9.206738159179688 1.0829999999999997 Q 9.085238159179687 1.0829999999999997 8.986238159179688 1.0372499999999998 Q 8.887238159179688 0.9914999999999998 8.815988159179687 0.9142499999999998 Q 8.744738159179688 0.8369999999999999 8.706488159179687 0.7402499999999999 Q 8.668238159179687 0.6434999999999998 8.668238159179687 0.5399999999999998 Q 8.668238159179687 0.4334999999999999 8.708738159179687 0.3374999999999998 Q 8.749238159179688 0.24149999999999983 8.821988159179687 0.16574999999999984 Q 8.894738159179687 0.08999999999999986 8.994488159179687 0.046499999999999764 Q 9.094238159179687 0.0029999999999998916 9.212738159179688 0.0029999999999998916 Q 9.334238159179687 0.0029999999999998916 9.433238159179687 0.04874999999999985 Q 9.532238159179688 0.0944999999999998 9.602738159179687 0.17249999999999988 Q 9.673238159179688 0.25049999999999983 9.711488159179687 0.34724999999999984 Q 9.749738159179687 0.44399999999999984 9.749738159179687 0.5459999999999998 Q 9.749738159179687 0.6509999999999998 9.709988159179687 0.7469999999999999 Q 9.670238159179688 0.8429999999999999 9.597488159179687 0.9187499999999998 Q 9.524738159179687 0.9944999999999998 9.425738159179687 1.0387499999999998 Q 9.326738159179687 1.0829999999999997 9.206738159179688 1.0829999999999997 M 8.965238159179687 0.5429999999999998 Q 8.965238159179687 0.5969999999999998 8.980238159179688 0.6472499999999999 Q 8.995238159179687 0.6974999999999998 9.025238159179688 0.7372499999999998 Q 9.055238159179687 0.7769999999999999 9.100988159179687 0.8002499999999999 Q 9.146738159179687 0.8234999999999999 9.209738159179688 0.8234999999999999 Q 9.272738159179687 0.8234999999999999 9.319238159179687 0.7994999999999999 Q 9.365738159179687 0.7754999999999999 9.394988159179688 0.7342499999999998 Q 9.424238159179687 0.6929999999999998 9.438488159179688 0.6427499999999998 Q 9.452738159179688 0.5924999999999998 9.452738159179688 0.5399999999999998 Q 9.452738159179688 0.4859999999999999 9.437738159179688 0.4364999999999998 Q 9.422738159179687 0.3869999999999998 9.392738159179688 0.34724999999999984 Q 9.362738159179688 0.3074999999999998 9.316238159179687 0.2849999999999998 Q 9.269738159179688 0.26249999999999984 9.208238159179688 0.26249999999999984 Q 9.145238159179687 0.26249999999999984 9.099488159179687 0.28649999999999987 Q 9.053738159179687 0.3104999999999998 9.023738159179688 0.35024999999999984 Q 8.993738159179687 0.3899999999999998 8.979488159179688 0.4402499999999998 Q 8.965238159179687 0.4904999999999998 8.965238159179687 0.5429999999999998 M 10.514787963867187 0.3569999999999999 Q 10.514787963867187 0.3569999999999999 10.489287963867188 0.34199999999999986 Q 10.463787963867187 0.32699999999999985 10.421787963867187 0.3082499999999998 Q 10.379787963867187 0.28949999999999987 10.330287963867187 0.27449999999999986 Q 10.280787963867187 0.25949999999999984 10.232787963867187 0.25949999999999984 Q 10.195287963867187 0.25949999999999984 10.171287963867188 0.27149999999999985 Q 10.147287963867187 0.28349999999999986 10.147287963867187 0.31199999999999983 Q 10.147287963867187 0.33899999999999986 10.171287963867188 0.3554999999999998 Q 10.195287963867187 0.3719999999999998 10.239537963867187 0.38549999999999984 Q 10.283787963867187 0.3989999999999998 10.345287963867188 0.41849999999999987 Q 10.444287963867188 0.4484999999999998 10.516287963867187 0.4874999999999998 Q 10.588287963867188 0.5264999999999999 10.627287963867188 0.5872499999999998 Q 10.666287963867187 0.6479999999999999 10.666287963867187 0.7484999999999998 Q 10.666287963867187 0.8444999999999998 10.631787963867188 0.9097499999999998 Q 10.597287963867188 0.9749999999999999 10.538787963867188 1.0139999999999998 Q 10.480287963867188 1.053 10.408287963867188 1.07025 Q 10.336287963867187 1.0875 10.261287963867188 1.0875 Q 10.184787963867187 1.0875 10.101537963867187 1.0717499999999998 Q 10.018287963867188 1.0559999999999998 9.940287963867188 1.0282499999999999 Q 9.862287963867187 1.0005 9.797787963867188 0.9629999999999999 L 9.923787963867188 0.7064999999999999 Q 9.923787963867188 0.7064999999999999 9.953787963867187 0.7244999999999998 Q 9.983787963867188 0.7424999999999998 10.033287963867188 0.7649999999999999 Q 10.082787963867187 0.7874999999999999 10.143537963867187 0.8054999999999999 Q 10.204287963867188 0.8234999999999999 10.265787963867188 0.8234999999999999 Q 10.313787963867188 0.8234999999999999 10.332537963867187 0.8107499999999999 Q 10.351287963867188 0.7979999999999998 10.351287963867188 0.7769999999999999 Q 10.351287963867188 0.7454999999999998 10.318287963867188 0.7282499999999998 Q 10.285287963867187 0.7109999999999999 10.232037963867187 0.6952499999999998 Q 10.178787963867187 0.6794999999999998 10.114287963867188 0.6584999999999999 Q 10.021287963867188 0.6269999999999998 9.961287963867187 0.5872499999999998 Q 9.901287963867187 0.5474999999999999 9.872787963867188 0.4927499999999998 Q 9.844287963867188 0.43799999999999983 9.844287963867188 0.3599999999999999 Q 9.844287963867188 0.24149999999999983 9.899787963867187 0.1619999999999998 Q 9.955287963867187 0.0824999999999998 10.046037963867187 0.04124999999999979 Q 10.136787963867187 -2.220446049250313e-16 10.241787963867187 -2.220446049250313e-16 Q 10.319787963867187 -2.220446049250313e-16 10.392537963867188 0.018749999999999822 Q 10.465287963867187 0.03749999999999987 10.529037963867188 0.06449999999999978 Q 10.592787963867188 0.0914999999999998 10.640787963867188 0.11549999999999983 L 10.514787963867187 0.3569999999999999 M 10.741294555664062 0.5324999999999999 Q 10.741294555664062 0.43499999999999983 10.778044555664064 0.34124999999999983 Q 10.814794555664063 0.24749999999999983 10.885294555664062 0.17099999999999982 Q 10.955794555664063 0.0944999999999998 11.057044555664064 0.04874999999999985 Q 11.158294555664062 0.0029999999999998916 11.285794555664063 0.0029999999999998916 Q 11.438794555664062 0.0029999999999998916 11.552794555664063 0.06674999999999986 Q 11.666794555664064 0.13049999999999984 11.722294555664062 0.23549999999999982 L 11.498794555664062 0.39449999999999985 Q 11.479294555664064 0.34199999999999986 11.442544555664062 0.3134999999999998 Q 11.405794555664063 0.2849999999999998 11.363044555664063 0.2737499999999998 Q 11.320294555664063 0.26249999999999984 11.279794555664063 0.26249999999999984 Q 11.216794555664062 0.26249999999999984 11.171044555664063 0.2872499999999998 Q 11.125294555664063 0.31199999999999983 11.096044555664063 0.3524999999999998 Q 11.066794555664062 0.3929999999999998 11.052544555664063 0.4424999999999998 Q 11.038294555664063 0.4919999999999999 11.038294555664063 0.5414999999999999 Q 11.038294555664063 0.5969999999999998 11.054794555664063 0.6479999999999999 Q 11.071294555664062 0.6989999999999998 11.102794555664063 0.7387499999999998 Q 11.134294555664063 0.7784999999999999 11.180044555664063 0.8009999999999998 Q 11.225794555664063 0.8234999999999999 11.282794555664063 0.8234999999999999 Q 11.323294555664063 0.8234999999999999 11.365294555664063 0.8107499999999999 Q 11.407294555664063 0.7979999999999998 11.441794555664062 0.7694999999999999 Q 11.476294555664063 0.7409999999999999 11.494294555664062 0.6929999999999998 L 11.732794555664062 0.8354999999999998 Q 11.701294555664063 0.9134999999999999 11.627794555664062 0.9689999999999999 Q 11.554294555664063 1.0244999999999997 11.461294555664063 1.0537499999999997 Q 11.368294555664063 1.0829999999999997 11.276794555664063 1.0829999999999997 Q 11.158294555664062 1.0829999999999997 11.060044555664064 1.03575 Q 10.961794555664063 0.9884999999999998 10.890544555664063 0.9097499999999998 Q 10.819294555664063 0.8309999999999998 10.780294555664062 0.7327499999999998 Q 10.741294555664062 0.6344999999999998 10.741294555664062 0.5324999999999999 M 12.070283569335938 0.008999999999999897 L 12.397283569335938 0.008999999999999897 L 12.736283569335939 1.0739999999999998 L 12.439283569335938 1.0739999999999998 L 12.374783569335937 0.8654999999999998 L 12.091283569335937 0.8654999999999998 L 12.028283569335938 1.0739999999999998 L 11.729783569335938 1.0739999999999998 L 12.070283569335938 0.008999999999999897 M 12.328283569335937 0.6704999999999999 L 12.233783569335937 0.2954999999999999 L 12.134783569335937 0.6704999999999999 L 12.328283569335937 0.6704999999999999 M 13.121771850585938 0.5504999999999999 L 13.121771850585938 1.0739999999999998 L 12.829271850585938 1.0739999999999998 L 12.829271850585938 0.008999999999999897 L 13.057271850585938 0.008999999999999897 L 13.484771850585938 0.5504999999999999 L 13.484771850585938 0.008999999999999897 L 13.777271850585938 0.008999999999999897 L 13.777271850585938 1.0739999999999998 L 13.544771850585938 1.0739999999999998 L 13.121771850585938 0.5504999999999999"
        fill="#1d212d"
        fill-rule="nonzero"
      ></path>
    </g>
    <g>
      <path
        d=" M 0.378 1.6925624999999997 Q 0.3555 1.6670624999999997 0.318 1.6513124999999997 Q 0.2805 1.6355624999999998 0.2325 1.6355624999999998 Q 0.162 1.6355624999999998 0.12975 1.6621874999999997 Q 0.0975 1.6888124999999996 0.0975 1.7345624999999998 Q 0.0975 1.7585624999999996 0.106125 1.7739374999999997 Q 0.11475 1.7893124999999996 0.13275 1.8005624999999998 Q 0.15075 1.8118124999999998 0.178875 1.8200624999999997 Q 0.20700000000000002 1.8283124999999998 0.24525 1.8365624999999997 Q 0.28800000000000003 1.8455624999999998 0.322125 1.8568124999999998 Q 0.35625 1.8680624999999997 0.38025000000000003 1.8849374999999997 Q 0.40425 1.9018124999999997 0.417 1.9258124999999997 Q 0.42975 1.9498124999999997 0.42975 1.9858124999999998 Q 0.42975 2.0225625 0.41550000000000004 2.0495624999999995 Q 0.40125 2.0765624999999996 0.37575000000000003 2.0945625 Q 0.35025 2.1125624999999997 0.315 2.1211874999999996 Q 0.27975 2.1298125 0.23775000000000002 2.1298125 Q 0.114 2.1298125 0.024 2.0525624999999996 L 0.05025 2.0098125 Q 0.0645 2.0248125 0.084375 2.0383124999999995 Q 0.10425 2.0518124999999996 0.128625 2.0619374999999995 Q 0.153 2.0720625 0.18075 2.0776874999999997 Q 0.2085 2.0833125 0.23925000000000002 2.0833125 Q 0.303 2.0833125 0.338625 2.0604375 Q 0.37425 2.0375624999999995 0.37425 1.9910624999999997 Q 0.37425 1.9663124999999997 0.36412500000000003 1.9494374999999997 Q 0.354 1.9325624999999997 0.33375 1.9201874999999997 Q 0.3135 1.9078124999999997 0.28350000000000003 1.8988124999999998 Q 0.2535 1.8898124999999997 0.21375 1.8808124999999998 Q 0.17175 1.8710624999999996 0.14025 1.8605624999999997 Q 0.10875 1.8500624999999997 0.08700000000000001 1.8343124999999998 Q 0.06525 1.8185624999999996 0.054375 1.7964374999999997 Q 0.043500000000000004 1.7743124999999997 0.043500000000000004 1.7420624999999996 Q 0.043500000000000004 1.7053124999999998 0.057375 1.6764374999999996 Q 0.07125000000000001 1.6475624999999998 0.09675 1.6284374999999998 Q 0.12225 1.6093124999999997 0.15675 1.5991874999999998 Q 0.19125 1.5890624999999998 0.23325 1.5890624999999998 Q 0.28650000000000003 1.5890624999999998 0.328125 1.6051874999999995 Q 0.36975 1.6213124999999997 0.4035 1.6505624999999997 L 0.378 1.6925624999999997 M 0.4878709716796874 1.8553124999999997 Q 0.4878709716796874 1.8073124999999997 0.5047459716796874 1.7596874999999996 Q 0.5216209716796875 1.7120624999999996 0.5538709716796875 1.6745624999999997 Q 0.5861209716796875 1.6370624999999996 0.6333709716796874 1.6134374999999999 Q 0.6806209716796874 1.5898124999999999 0.7406209716796874 1.5898124999999999 Q 0.8118709716796875 1.5898124999999999 0.8624959716796874 1.6220624999999997 Q 0.9131209716796874 1.6543124999999996 0.9371209716796874 1.7060624999999998 L 0.8958709716796874 1.7315624999999997 Q 0.8831209716796875 1.7053124999999998 0.8647459716796875 1.6873124999999998 Q 0.8463709716796874 1.6693124999999998 0.8253709716796874 1.6580624999999998 Q 0.8043709716796874 1.6468124999999998 0.7818709716796874 1.6419374999999996 Q 0.7593709716796875 1.6370624999999996 0.7376209716796874 1.6370624999999996 Q 0.6896209716796875 1.6370624999999996 0.6528709716796874 1.6565624999999997 Q 0.6161209716796874 1.6760624999999998 0.5909959716796874 1.7075624999999997 Q 0.5658709716796875 1.7390624999999997 0.5531209716796874 1.7784374999999997 Q 0.5403709716796874 1.8178124999999996 0.5403709716796874 1.8583124999999998 Q 0.5403709716796874 1.9025624999999997 0.5557459716796874 1.9430624999999997 Q 0.5711209716796875 1.9835624999999997 0.5977459716796875 2.0146874999999995 Q 0.6243709716796875 2.0458125 0.6607459716796874 2.0641874999999996 Q 0.6971209716796875 2.0825625 0.7398709716796874 2.0825625 Q 0.7623709716796874 2.0825625 0.7859959716796874 2.0769374999999997 Q 0.8096209716796874 2.0713125 0.8317459716796874 2.0589375 Q 0.8538709716796875 2.0465625 0.8726209716796874 2.0281874999999996 Q 0.8913709716796874 2.0098125 0.9041209716796874 1.9835624999999997 L 0.9476209716796875 2.0060624999999996 Q 0.9348709716796875 2.0360625 0.9116209716796875 2.0589375 Q 0.8883709716796875 2.0818125 0.8598709716796875 2.0975624999999996 Q 0.8313709716796874 2.1133124999999997 0.7994959716796874 2.1215624999999996 Q 0.7676209716796875 2.1298125 0.7368709716796875 2.1298125 Q 0.6821209716796874 2.1298125 0.6363709716796875 2.1058125 Q 0.5906209716796874 2.0818125 0.5576209716796874 2.0431874999999997 Q 0.5246209716796875 2.0045624999999996 0.5062459716796874 1.9554374999999997 Q 0.4878709716796874 1.9063124999999996 0.4878709716796874 1.8553124999999997 M 1.19621923828125 1.5928124999999997 L 1.2404692382812499 1.5928124999999997 L 1.4617192382812498 2.1253124999999997 L 1.40621923828125 2.1253124999999997 L 1.33721923828125 1.9588124999999996 L 1.0979692382812498 1.9588124999999996 L 1.02971923828125 2.1253124999999997 L 0.9734692382812499 2.1253124999999997 L 1.19621923828125 1.5928124999999997 M 1.32521923828125 1.9175624999999996 L 1.21796923828125 1.6543124999999996 L 1.1092192382812498 1.9175624999999996 L 1.32521923828125 1.9175624999999996 M 1.5918632812499998 1.6903124999999997 L 1.5918632812499998 2.1253124999999997 L 1.5393632812499998 2.1253124999999997 L 1.5393632812499998 1.5928124999999997 L 1.5798632812499998 1.5928124999999997 L 1.9323632812499998 2.0360625 L 1.9323632812499998 1.5935624999999995 L 1.9848632812499996 1.5935624999999995 L 1.9848632812499996 2.1253124999999997 L 1.9391132812499996 2.1253124999999997 L 1.5918632812499998 1.6903124999999997 M 2.1719677734375 1.6903124999999997 L 2.1719677734375 2.1253124999999997 L 2.1194677734374996 2.1253124999999997 L 2.1194677734374996 1.5928124999999997 L 2.1599677734375 1.5928124999999997 L 2.5124677734375 2.0360625 L 2.5124677734375 1.5935624999999995 L 2.5649677734374996 1.5935624999999995 L 2.5649677734374996 2.1253124999999997 L 2.5192177734374996 2.1253124999999997 L 2.1719677734375 1.6903124999999997 M 3.057322265625 2.0788124999999997 L 3.057322265625 2.1253124999999997 L 2.6995722656249996 2.1253124999999997 L 2.6995722656249996 1.5928124999999997 L 3.0505722656249996 1.5928124999999997 L 3.0505722656249996 1.6393124999999997 L 2.752072265625 1.6393124999999997 L 2.752072265625 1.8313124999999997 L 3.012322265625 1.8313124999999997 L 3.012322265625 1.8755624999999998 L 2.752072265625 1.8755624999999998 L 2.752072265625 2.0788124999999997 L 3.057322265625 2.0788124999999997 M 3.1574538574218747 2.1253124999999997 L 3.1574538574218747 1.5928124999999997 L 3.3824538574218748 1.5928124999999997 Q 3.4169538574218747 1.5928124999999997 3.445828857421875 1.6074374999999996 Q 3.4747038574218747 1.6220624999999997 3.4957038574218746 1.6456874999999997 Q 3.516703857421875 1.6693124999999998 3.528328857421875 1.6993124999999998 Q 3.539953857421875 1.7293124999999998 3.539953857421875 1.7600624999999996 Q 3.539953857421875 1.7893124999999996 3.5313288574218746 1.8159374999999998 Q 3.5227038574218748 1.8425624999999997 3.507328857421875 1.8639374999999996 Q 3.491953857421875 1.8853124999999997 3.470203857421875 1.8999374999999996 Q 3.4484538574218746 1.9145624999999997 3.421453857421875 1.9198124999999997 L 3.551953857421875 2.1253124999999997 L 3.492703857421875 2.1253124999999997 L 3.3674538574218746 1.9288124999999998 L 3.209953857421875 1.9288124999999998 L 3.209953857421875 2.1253124999999997 L 3.1574538574218747 2.1253124999999997 M 3.209953857421875 1.8823124999999998 L 3.383953857421875 1.8823124999999998 Q 3.407203857421875 1.8823124999999998 3.4263288574218747 1.8721874999999997 Q 3.445453857421875 1.8620624999999997 3.458953857421875 1.8448124999999997 Q 3.4724538574218746 1.8275624999999998 3.479953857421875 1.8058124999999996 Q 3.4874538574218747 1.7840624999999997 3.4874538574218747 1.7600624999999996 Q 3.4874538574218747 1.7360624999999996 3.478828857421875 1.7139374999999997 Q 3.470203857421875 1.6918124999999997 3.455578857421875 1.6753124999999998 Q 3.4409538574218748 1.6588124999999998 3.421078857421875 1.6490624999999997 Q 3.4012038574218746 1.6393124999999997 3.3794538574218747 1.6393124999999997 L 3.209953857421875 1.6393124999999997 L 3.209953857421875 1.8823124999999998 M 3.812971435546875 1.5928124999999997 L 4.003471435546875 2.0600625 L 4.193221435546875 1.5928124999999997 L 4.247971435546875 1.5928124999999997 L 4.025971435546875 2.1253124999999997 L 3.980221435546875 2.1253124999999997 L 3.758221435546875 1.5928124999999997 L 3.812971435546875 1.5928124999999997 M 4.520607788085937 2.1290625 Q 4.465107788085937 2.1290625 4.418982788085937 2.1061875 Q 4.372857788085937 2.0833125 4.339857788085937 2.0454375 Q 4.306857788085937 2.0075624999999997 4.288857788085937 1.9588124999999996 Q 4.270857788085937 1.9100624999999998 4.270857788085937 1.8590624999999998 Q 4.270857788085937 1.8058124999999996 4.289982788085937 1.7570624999999997 Q 4.309107788085937 1.7083124999999997 4.342857788085937 1.6708124999999998 Q 4.376607788085937 1.6333124999999997 4.422357788085937 1.6111874999999998 Q 4.468107788085937 1.5890624999999998 4.521357788085937 1.5890624999999998 Q 4.576857788085937 1.5890624999999998 4.622982788085937 1.6126874999999998 Q 4.669107788085937 1.6363124999999998 4.701732788085937 1.6745624999999997 Q 4.734357788085937 1.7128124999999996 4.752357788085937 1.7611874999999997 Q 4.770357788085937 1.8095624999999997 4.770357788085937 1.8598124999999996 Q 4.770357788085937 1.9130624999999997 4.751232788085937 1.9618124999999997 Q 4.732107788085937 2.0105625 4.698732788085937 2.0476875 Q 4.665357788085937 2.0848124999999995 4.619607788085937 2.1069375 Q 4.573857788085937 2.1290625 4.520607788085937 2.1290625 M 4.323357788085937 1.8590624999999998 Q 4.323357788085937 1.9025624999999997 4.337607788085937 1.9426874999999997 Q 4.351857788085937 1.9828124999999996 4.378107788085937 2.0139375 Q 4.404357788085937 2.0450625 4.440357788085937 2.0634374999999996 Q 4.476357788085937 2.0818125 4.520607788085937 2.0818125 Q 4.565607788085937 2.0818125 4.602357788085937 2.0623124999999995 Q 4.639107788085937 2.0428124999999997 4.664607788085937 2.0113125 Q 4.690107788085937 1.9798124999999998 4.703982788085937 1.9400624999999998 Q 4.717857788085937 1.9003124999999996 4.717857788085937 1.8590624999999998 Q 4.717857788085937 1.8155624999999997 4.703232788085937 1.7754374999999998 Q 4.688607788085937 1.7353124999999996 4.662357788085937 1.7045624999999998 Q 4.636107788085937 1.6738124999999997 4.600107788085937 1.6554374999999997 Q 4.564107788085937 1.6370624999999996 4.520607788085937 1.6370624999999996 Q 4.475607788085937 1.6370624999999996 4.438857788085937 1.6561874999999997 Q 4.402107788085937 1.6753124999999998 4.376607788085937 1.7068124999999998 Q 4.351107788085937 1.7383124999999997 4.337232788085937 1.7780624999999997 Q 4.323357788085937 1.8178124999999996 4.323357788085937 1.8590624999999998 M 5.181715209960937 1.6925624999999997 Q 5.159215209960937 1.6670624999999997 5.121715209960937 1.6513124999999997 Q 5.084215209960937 1.6355624999999998 5.036215209960937 1.6355624999999998 Q 4.965715209960937 1.6355624999999998 4.933465209960937 1.6621874999999997 Q 4.901215209960937 1.6888124999999996 4.901215209960937 1.7345624999999998 Q 4.901215209960937 1.7585624999999996 4.909840209960937 1.7739374999999997 Q 4.918465209960937 1.7893124999999996 4.936465209960937 1.8005624999999998 Q 4.954465209960937 1.8118124999999998 4.982590209960937 1.8200624999999997 Q 5.010715209960937 1.8283124999999998 5.0489652099609375 1.8365624999999997 Q 5.091715209960937 1.8455624999999998 5.125840209960937 1.8568124999999998 Q 5.159965209960937 1.8680624999999997 5.183965209960937 1.8849374999999997 Q 5.207965209960937 1.9018124999999997 5.220715209960937 1.9258124999999997 Q 5.233465209960937 1.9498124999999997 5.233465209960937 1.9858124999999998 Q 5.233465209960937 2.0225625 5.219215209960937 2.0495624999999995 Q 5.204965209960937 2.0765624999999996 5.179465209960937 2.0945625 Q 5.153965209960937 2.1125624999999997 5.118715209960937 2.1211874999999996 Q 5.083465209960937 2.1298125 5.041465209960937 2.1298125 Q 4.917715209960937 2.1298125 4.827715209960937 2.0525624999999996 L 4.853965209960937 2.0098125 Q 4.868215209960937 2.0248125 4.888090209960937 2.0383124999999995 Q 4.907965209960937 2.0518124999999996 4.9323402099609375 2.0619374999999995 Q 4.956715209960937 2.0720625 4.984465209960937 2.0776874999999997 Q 5.012215209960937 2.0833125 5.042965209960937 2.0833125 Q 5.106715209960937 2.0833125 5.142340209960937 2.0604375 Q 5.177965209960937 2.0375624999999995 5.177965209960937 1.9910624999999997 Q 5.177965209960937 1.9663124999999997 5.1678402099609375 1.9494374999999997 Q 5.157715209960937 1.9325624999999997 5.137465209960937 1.9201874999999997 Q 5.117215209960937 1.9078124999999997 5.087215209960937 1.8988124999999998 Q 5.057215209960937 1.8898124999999997 5.017465209960937 1.8808124999999998 Q 4.975465209960937 1.8710624999999996 4.943965209960937 1.8605624999999997 Q 4.912465209960937 1.8500624999999997 4.890715209960937 1.8343124999999998 Q 4.868965209960937 1.8185624999999996 4.858090209960937 1.7964374999999997 Q 4.847215209960937 1.7743124999999997 4.847215209960937 1.7420624999999996 Q 4.847215209960937 1.7053124999999998 4.861090209960937 1.6764374999999996 Q 4.874965209960937 1.6475624999999998 4.900465209960937 1.6284374999999998 Q 4.925965209960937 1.6093124999999997 4.960465209960937 1.5991874999999998 Q 4.994965209960937 1.5890624999999998 5.036965209960937 1.5890624999999998 Q 5.090215209960937 1.5890624999999998 5.131840209960937 1.6051874999999995 Q 5.173465209960937 1.6213124999999997 5.207215209960937 1.6505624999999997 L 5.181715209960937 1.6925624999999997 M 5.5192148437499995 2.1253124999999997 L 5.5192148437499995 1.5928124999999997 L 5.699964843749999 1.5928124999999997 Q 5.76371484375 1.5928124999999997 5.81133984375 1.6138124999999997 Q 5.85896484375 1.6348124999999998 5.890839843749999 1.6708124999999998 Q 5.92271484375 1.7068124999999998 5.938839843749999 1.7551874999999997 Q 5.95496484375 1.8035624999999997 5.95496484375 1.8583124999999998 Q 5.95496484375 1.9190624999999997 5.936964843749999 1.9681874999999998 Q 5.9189648437499995 2.0173124999999996 5.885589843749999 2.0521874999999996 Q 5.85221484375 2.0870624999999996 5.80533984375 2.1061875 Q 5.75846484375 2.1253124999999997 5.699964843749999 2.1253124999999997 L 5.5192148437499995 2.1253124999999997 M 5.90246484375 1.8583124999999998 Q 5.90246484375 1.8103124999999998 5.888964843749999 1.7701874999999996 Q 5.87546484375 1.7300624999999998 5.84958984375 1.7008124999999996 Q 5.8237148437499995 1.6715624999999998 5.78621484375 1.6554374999999997 Q 5.748714843749999 1.6393124999999997 5.699964843749999 1.6393124999999997 L 5.57171484375 1.6393124999999997 L 5.57171484375 2.0788124999999997 L 5.699964843749999 2.0788124999999997 Q 5.749464843749999 2.0788124999999997 5.78733984375 2.0619374999999995 Q 5.8252148437499995 2.0450625 5.85071484375 2.0154374999999995 Q 5.87621484375 1.9858124999999998 5.889339843749999 1.9456874999999998 Q 5.90246484375 1.9055624999999998 5.90246484375 1.8583124999999998 M 6.247109985351562 1.5200624999999997 L 6.213359985351562 1.5073124999999998 L 6.2576099853515625 1.4375624999999999 L 6.311609985351562 1.4375624999999999 L 6.247109985351562 1.5200624999999997 M 6.414359985351562 2.0788124999999997 L 6.414359985351562 2.1253124999999997 L 6.056609985351562 2.1253124999999997 L 6.056609985351562 1.5928124999999997 L 6.407609985351562 1.5928124999999997 L 6.407609985351562 1.6393124999999997 L 6.109109985351562 1.6393124999999997 L 6.109109985351562 1.8313124999999997 L 6.369359985351562 1.8313124999999997 L 6.369359985351562 1.8755624999999998 L 6.109109985351562 1.8755624999999998 L 6.109109985351562 2.0788124999999997 L 6.414359985351562 2.0788124999999997 M 6.4679805908203125 1.8553124999999997 Q 6.4679805908203125 1.8073124999999997 6.484855590820312 1.7596874999999996 Q 6.501730590820312 1.7120624999999996 6.533980590820312 1.6745624999999997 Q 6.566230590820312 1.6370624999999996 6.613480590820312 1.6134374999999999 Q 6.660730590820312 1.5898124999999999 6.720730590820312 1.5898124999999999 Q 6.791980590820312 1.5898124999999999 6.8426055908203125 1.6220624999999997 Q 6.893230590820313 1.6543124999999996 6.917230590820312 1.7060624999999998 L 6.875980590820312 1.7315624999999997 Q 6.863230590820312 1.7053124999999998 6.844855590820313 1.6873124999999998 Q 6.826480590820312 1.6693124999999998 6.805480590820312 1.6580624999999998 Q 6.784480590820312 1.6468124999999998 6.761980590820312 1.6419374999999996 Q 6.739480590820312 1.6370624999999996 6.717730590820312 1.6370624999999996 Q 6.669730590820312 1.6370624999999996 6.6329805908203125 1.6565624999999997 Q 6.596230590820312 1.6760624999999998 6.571105590820312 1.7075624999999997 Q 6.545980590820312 1.7390624999999997 6.533230590820312 1.7784374999999997 Q 6.520480590820312 1.8178124999999996 6.520480590820312 1.8583124999999998 Q 6.520480590820312 1.9025624999999997 6.535855590820312 1.9430624999999997 Q 6.551230590820312 1.9835624999999997 6.577855590820312 2.0146874999999995 Q 6.604480590820312 2.0458125 6.640855590820312 2.0641874999999996 Q 6.6772305908203125 2.0825625 6.719980590820312 2.0825625 Q 6.742480590820312 2.0825625 6.766105590820312 2.0769374999999997 Q 6.789730590820312 2.0713125 6.811855590820312 2.0589375 Q 6.833980590820312 2.0465625 6.852730590820312 2.0281874999999996 Q 6.871480590820312 2.0098125 6.884230590820312 1.9835624999999997 L 6.927730590820312 2.0060624999999996 Q 6.914980590820313 2.0360625 6.891730590820313 2.0589375 Q 6.868480590820313 2.0818125 6.839980590820312 2.0975624999999996 Q 6.811480590820312 2.1133124999999997 6.779605590820312 2.1215624999999996 Q 6.7477305908203125 2.1298125 6.716980590820312 2.1298125 Q 6.662230590820312 2.1298125 6.616480590820312 2.1058125 Q 6.570730590820312 2.0818125 6.5377305908203125 2.0431874999999997 Q 6.504730590820312 2.0045624999999996 6.486355590820312 1.9554374999999997 Q 6.4679805908203125 1.9063124999999996 6.4679805908203125 1.8553124999999997 M 7.4388361816406245 1.5928124999999997 L 7.4388361816406245 2.1253124999999997 L 7.387086181640624 2.1253124999999997 L 7.387086181640624 1.8763124999999996 L 7.071336181640625 1.8763124999999996 L 7.071336181640625 2.1253124999999997 L 7.018836181640625 2.1253124999999997 L 7.018836181640625 1.5928124999999997 L 7.071336181640625 1.5928124999999997 L 7.071336181640625 1.8298124999999996 L 7.387086181640624 1.8298124999999996 L 7.387086181640624 1.5928124999999997 L 7.4388361816406245 1.5928124999999997 M 7.931193237304687 2.0788124999999997 L 7.931193237304687 2.1253124999999997 L 7.573443237304687 2.1253124999999997 L 7.573443237304687 1.5928124999999997 L 7.924443237304687 1.5928124999999997 L 7.924443237304687 1.6393124999999997 L 7.625943237304687 1.6393124999999997 L 7.625943237304687 1.8313124999999997 L 7.8861932373046875 1.8313124999999997 L 7.8861932373046875 1.8755624999999998 L 7.625943237304687 1.8755624999999998 L 7.625943237304687 2.0788124999999997 L 7.931193237304687 2.0788124999999997 M 8.409324829101562 1.6393124999999997 L 8.219574829101562 1.6393124999999997 L 8.219574829101562 2.1253124999999997 L 8.167074829101562 2.1253124999999997 L 8.167074829101562 1.6393124999999997 L 7.977324829101562 1.6393124999999997 L 7.977324829101562 1.5928124999999997 L 8.409324829101562 1.5928124999999997 L 8.409324829101562 1.6393124999999997 M 8.801188842773437 1.6925624999999997 Q 8.778688842773436 1.6670624999999997 8.741188842773436 1.6513124999999997 Q 8.703688842773436 1.6355624999999998 8.655688842773436 1.6355624999999998 Q 8.585188842773437 1.6355624999999998 8.552938842773436 1.6621874999999997 Q 8.520688842773437 1.6888124999999996 8.520688842773437 1.7345624999999998 Q 8.520688842773437 1.7585624999999996 8.529313842773437 1.7739374999999997 Q 8.537938842773437 1.7893124999999996 8.555938842773436 1.8005624999999998 Q 8.573938842773437 1.8118124999999998 8.602063842773436 1.8200624999999997 Q 8.630188842773437 1.8283124999999998 8.668438842773437 1.8365624999999997 Q 8.711188842773437 1.8455624999999998 8.745313842773436 1.8568124999999998 Q 8.779438842773436 1.8680624999999997 8.803438842773437 1.8849374999999997 Q 8.827438842773436 1.9018124999999997 8.840188842773436 1.9258124999999997 Q 8.852938842773437 1.9498124999999997 8.852938842773437 1.9858124999999998 Q 8.852938842773437 2.0225625 8.838688842773436 2.0495624999999995 Q 8.824438842773436 2.0765624999999996 8.798938842773437 2.0945625 Q 8.773438842773437 2.1125624999999997 8.738188842773436 2.1211874999999996 Q 8.702938842773436 2.1298125 8.660938842773437 2.1298125 Q 8.537188842773437 2.1298125 8.447188842773436 2.0525624999999996 L 8.473438842773437 2.0098125 Q 8.487688842773437 2.0248125 8.507563842773436 2.0383124999999995 Q 8.527438842773437 2.0518124999999996 8.551813842773436 2.0619374999999995 Q 8.576188842773437 2.0720625 8.603938842773436 2.0776874999999997 Q 8.631688842773437 2.0833125 8.662438842773437 2.0833125 Q 8.726188842773437 2.0833125 8.761813842773437 2.0604375 Q 8.797438842773436 2.0375624999999995 8.797438842773436 1.9910624999999997 Q 8.797438842773436 1.9663124999999997 8.787313842773436 1.9494374999999997 Q 8.777188842773436 1.9325624999999997 8.756938842773437 1.9201874999999997 Q 8.736688842773436 1.9078124999999997 8.706688842773437 1.8988124999999998 Q 8.676688842773437 1.8898124999999997 8.636938842773436 1.8808124999999998 Q 8.594938842773436 1.8710624999999996 8.563438842773436 1.8605624999999997 Q 8.531938842773437 1.8500624999999997 8.510188842773436 1.8343124999999998 Q 8.488438842773437 1.8185624999999996 8.477563842773437 1.7964374999999997 Q 8.466688842773436 1.7743124999999997 8.466688842773436 1.7420624999999996 Q 8.466688842773436 1.7053124999999998 8.480563842773437 1.6764374999999996 Q 8.494438842773436 1.6475624999999998 8.519938842773437 1.6284374999999998 Q 8.545438842773436 1.6093124999999997 8.579938842773437 1.5991874999999998 Q 8.614438842773437 1.5890624999999998 8.656438842773436 1.5890624999999998 Q 8.709688842773437 1.5890624999999998 8.751313842773436 1.6051874999999995 Q 8.792938842773436 1.6213124999999997 8.826688842773436 1.6505624999999997 L 8.801188842773437 1.6925624999999997 M 9.1386884765625 2.1253124999999997 L 9.1386884765625 1.5928124999999997 L 9.3591884765625 1.5928124999999997 Q 9.393688476562499 1.5928124999999997 9.4225634765625 1.6074374999999996 Q 9.4514384765625 1.6220624999999997 9.472438476562498 1.6456874999999997 Q 9.493438476562499 1.6693124999999998 9.5054384765625 1.6993124999999998 Q 9.5174384765625 1.7293124999999998 9.5174384765625 1.7600624999999996 Q 9.5174384765625 1.7930624999999998 9.5061884765625 1.8234374999999998 Q 9.4949384765625 1.8538124999999996 9.474688476562498 1.8770624999999996 Q 9.4544384765625 1.9003124999999996 9.426313476562498 1.9145624999999997 Q 9.398188476562499 1.9288124999999998 9.3636884765625 1.9288124999999998 L 9.191188476562498 1.9288124999999998 L 9.191188476562498 2.1253124999999997 L 9.1386884765625 2.1253124999999997 M 9.191188476562498 1.8823124999999998 L 9.3614384765625 1.8823124999999998 Q 9.384688476562498 1.8823124999999998 9.4038134765625 1.8721874999999997 Q 9.4229384765625 1.8620624999999997 9.436438476562499 1.8451874999999998 Q 9.4499384765625 1.8283124999999998 9.4574384765625 1.8061874999999996 Q 9.4649384765625 1.7840624999999997 9.4649384765625 1.7600624999999996 Q 9.4649384765625 1.7353124999999996 9.4563134765625 1.7131874999999996 Q 9.447688476562499 1.6910624999999997 9.433063476562499 1.6745624999999997 Q 9.4184384765625 1.6580624999999998 9.398563476562499 1.6486874999999996 Q 9.378688476562498 1.6393124999999997 9.3569384765625 1.6393124999999997 L 9.191188476562498 1.6393124999999997 L 9.191188476562498 1.8823124999999998 M 9.820820434570312 2.1290625 Q 9.765320434570311 2.1290625 9.719195434570311 2.1061875 Q 9.673070434570311 2.0833125 9.640070434570312 2.0454375 Q 9.607070434570312 2.0075624999999997 9.589070434570312 1.9588124999999996 Q 9.571070434570311 1.9100624999999998 9.571070434570311 1.8590624999999998 Q 9.571070434570311 1.8058124999999996 9.590195434570312 1.7570624999999997 Q 9.609320434570312 1.7083124999999997 9.643070434570312 1.6708124999999998 Q 9.676820434570311 1.6333124999999997 9.722570434570311 1.6111874999999998 Q 9.768320434570311 1.5890624999999998 9.821570434570312 1.5890624999999998 Q 9.877070434570312 1.5890624999999998 9.923195434570312 1.6126874999999998 Q 9.969320434570312 1.6363124999999998 10.001945434570311 1.6745624999999997 Q 10.03457043457031 1.7128124999999996 10.052570434570312 1.7611874999999997 Q 10.070570434570312 1.8095624999999997 10.070570434570312 1.8598124999999996 Q 10.070570434570312 1.9130624999999997 10.051445434570311 1.9618124999999997 Q 10.032320434570313 2.0105625 9.998945434570311 2.0476875 Q 9.965570434570312 2.0848124999999995 9.919820434570312 2.1069375 Q 9.874070434570312 2.1290625 9.820820434570312 2.1290625 M 9.623570434570311 1.8590624999999998 Q 9.623570434570311 1.9025624999999997 9.637820434570312 1.9426874999999997 Q 9.652070434570312 1.9828124999999996 9.678320434570312 2.0139375 Q 9.70457043457031 2.0450625 9.740570434570312 2.0634374999999996 Q 9.776570434570312 2.0818125 9.820820434570312 2.0818125 Q 9.865820434570312 2.0818125 9.902570434570311 2.0623124999999995 Q 9.93932043457031 2.0428124999999997 9.964820434570312 2.0113125 Q 9.990320434570311 1.9798124999999998 10.004195434570311 1.9400624999999998 Q 10.018070434570312 1.9003124999999996 10.018070434570312 1.8590624999999998 Q 10.018070434570312 1.8155624999999997 10.003445434570311 1.7754374999999998 Q 9.98882043457031 1.7353124999999996 9.962570434570312 1.7045624999999998 Q 9.936320434570312 1.6738124999999997 9.900320434570311 1.6554374999999997 Q 9.864320434570311 1.6370624999999996 9.820820434570312 1.6370624999999996 Q 9.775820434570312 1.6370624999999996 9.739070434570312 1.6561874999999997 Q 9.702320434570312 1.6753124999999998 9.676820434570311 1.7068124999999998 Q 9.651320434570312 1.7383124999999997 9.637445434570312 1.7780624999999997 Q 9.623570434570311 1.8178124999999996 9.623570434570311 1.8590624999999998 M 10.386677856445312 2.0818125 Q 10.436927856445312 2.0818125 10.470302856445311 2.0626874999999996 Q 10.50367785644531 2.0435624999999997 10.523552856445312 2.0124375 Q 10.543427856445312 1.9813124999999996 10.55130285644531 1.9415624999999996 Q 10.559177856445311 1.9018124999999997 10.559177856445311 1.8613124999999997 L 10.559177856445311 1.5928124999999997 L 10.611677856445311 1.5928124999999997 L 10.611677856445311 1.8613124999999997 Q 10.611677856445311 1.9153124999999998 10.599677856445311 1.9636874999999998 Q 10.587677856445312 2.0120625 10.561052856445311 2.0488125 Q 10.534427856445312 2.0855624999999995 10.491677856445312 2.1073125 Q 10.448927856445312 2.1290625 10.387427856445312 2.1290625 Q 10.324427856445311 2.1290625 10.281302856445311 2.1061875 Q 10.238177856445311 2.0833125 10.211927856445312 2.0458125 Q 10.185677856445311 2.0083124999999997 10.174427856445313 1.9603124999999997 Q 10.163177856445312 1.9123124999999996 10.163177856445312 1.8613124999999997 L 10.163177856445312 1.5928124999999997 L 10.214927856445312 1.5928124999999997 L 10.214927856445312 1.8613124999999997 Q 10.214927856445312 1.9033124999999997 10.22317785644531 1.9430624999999997 Q 10.231427856445311 1.9828124999999996 10.251302856445312 2.0135625 Q 10.271177856445311 2.0443124999999998 10.304177856445312 2.0630624999999996 Q 10.337177856445312 2.0818125 10.386677856445312 2.0818125 M 10.738056518554687 2.1253124999999997 L 10.738056518554687 1.5928124999999997 L 10.963056518554687 1.5928124999999997 Q 10.997556518554687 1.5928124999999997 11.026431518554686 1.6074374999999996 Q 11.055306518554687 1.6220624999999997 11.076306518554686 1.6456874999999997 Q 11.097306518554687 1.6693124999999998 11.108931518554687 1.6993124999999998 Q 11.120556518554686 1.7293124999999998 11.120556518554686 1.7600624999999996 Q 11.120556518554686 1.7893124999999996 11.111931518554687 1.8159374999999998 Q 11.103306518554687 1.8425624999999997 11.087931518554687 1.8639374999999996 Q 11.072556518554686 1.8853124999999997 11.050806518554687 1.8999374999999996 Q 11.029056518554686 1.9145624999999997 11.002056518554687 1.9198124999999997 L 11.132556518554686 2.1253124999999997 L 11.073306518554686 2.1253124999999997 L 10.948056518554687 1.9288124999999998 L 10.790556518554686 1.9288124999999998 L 10.790556518554686 2.1253124999999997 L 10.738056518554687 2.1253124999999997 M 10.790556518554686 1.8823124999999998 L 10.964556518554687 1.8823124999999998 Q 10.987806518554686 1.8823124999999998 11.006931518554687 1.8721874999999997 Q 11.026056518554686 1.8620624999999997 11.039556518554686 1.8448124999999997 Q 11.053056518554687 1.8275624999999998 11.060556518554687 1.8058124999999996 Q 11.068056518554688 1.7840624999999997 11.068056518554688 1.7600624999999996 Q 11.068056518554688 1.7360624999999996 11.059431518554687 1.7139374999999997 Q 11.050806518554687 1.6918124999999997 11.036181518554686 1.6753124999999998 Q 11.021556518554688 1.6588124999999998 11.001681518554687 1.6490624999999997 Q 10.981806518554686 1.6393124999999997 10.960056518554687 1.6393124999999997 L 10.790556518554686 1.6393124999999997 L 10.790556518554686 1.8823124999999998 M 11.637321533203124 2.0818125 Q 11.687571533203124 2.0818125 11.720946533203124 2.0626874999999996 Q 11.754321533203123 2.0435624999999997 11.774196533203124 2.0124375 Q 11.794071533203125 1.9813124999999996 11.801946533203123 1.9415624999999996 Q 11.809821533203124 1.9018124999999997 11.809821533203124 1.8613124999999997 L 11.809821533203124 1.5928124999999997 L 11.862321533203124 1.5928124999999997 L 11.862321533203124 1.8613124999999997 Q 11.862321533203124 1.9153124999999998 11.850321533203124 1.9636874999999998 Q 11.838321533203125 2.0120625 11.811696533203124 2.0488125 Q 11.785071533203125 2.0855624999999995 11.742321533203125 2.1073125 Q 11.699571533203125 2.1290625 11.638071533203124 2.1290625 Q 11.575071533203124 2.1290625 11.531946533203124 2.1061875 Q 11.488821533203124 2.0833125 11.462571533203125 2.0458125 Q 11.436321533203124 2.0083124999999997 11.425071533203123 1.9603124999999997 Q 11.413821533203125 1.9123124999999996 11.413821533203125 1.8613124999999997 L 11.413821533203125 1.5928124999999997 L 11.465571533203125 1.5928124999999997 L 11.465571533203125 1.8613124999999997 Q 11.465571533203125 1.9033124999999997 11.473821533203123 1.9430624999999997 Q 11.482071533203124 1.9828124999999996 11.501946533203125 2.0135625 Q 11.521821533203124 2.0443124999999998 11.554821533203125 2.0630624999999996 Q 11.587821533203124 2.0818125 11.637321533203124 2.0818125 M 12.041200195312499 1.6903124999999997 L 12.041200195312499 2.1253124999999997 L 11.9887001953125 2.1253124999999997 L 11.9887001953125 1.5928124999999997 L 12.0292001953125 1.5928124999999997 L 12.381700195312499 2.0360625 L 12.381700195312499 1.5935624999999995 L 12.4342001953125 1.5935624999999995 L 12.4342001953125 2.1253124999999997 L 12.3884501953125 2.1253124999999997 L 12.041200195312499 1.6903124999999997 M 12.9265546875 2.0788124999999997 L 12.9265546875 2.1253124999999997 L 12.5688046875 2.1253124999999997 L 12.5688046875 1.5928124999999997 L 12.9198046875 1.5928124999999997 L 12.9198046875 1.6393124999999997 L 12.621304687499999 1.6393124999999997 L 12.621304687499999 1.8313124999999997 L 12.8815546875 1.8313124999999997 L 12.8815546875 1.8755624999999998 L 12.621304687499999 1.8755624999999998 L 12.621304687499999 2.0788124999999997 L 12.9265546875 2.0788124999999997 M 13.690814941406249 2.1253124999999997 L 13.690814941406249 1.6880624999999996 L 13.49656494140625 2.0263124999999995 L 13.465814941406249 2.0263124999999995 L 13.271564941406249 1.6880624999999996 L 13.271564941406249 2.1253124999999997 L 13.21906494140625 2.1253124999999997 L 13.21906494140625 1.5928124999999997 L 13.273064941406249 1.5928124999999997 L 13.48081494140625 1.9573124999999998 L 13.69006494140625 1.5928124999999997 L 13.743314941406249 1.5928124999999997 L 13.743314941406249 2.1253124999999997 L 13.690814941406249 2.1253124999999997 M 14.235700561523437 2.0788124999999997 L 14.235700561523437 2.1253124999999997 L 13.877950561523438 2.1253124999999997 L 13.877950561523438 1.5928124999999997 L 14.228950561523437 1.5928124999999997 L 14.228950561523437 1.6393124999999997 L 13.930450561523436 1.6393124999999997 L 13.930450561523436 1.8313124999999997 L 14.190700561523437 1.8313124999999997 L 14.190700561523437 1.8755624999999998 L 13.930450561523436 1.8755624999999998 L 13.930450561523436 2.0788124999999997 L 14.235700561523437 2.0788124999999997 M 14.335832153320313 2.1253124999999997 L 14.335832153320313 1.5928124999999997 L 14.388332153320311 1.5928124999999997 L 14.388332153320311 2.1253124999999997 L 14.335832153320313 2.1253124999999997 M 14.522946533203125 2.1253124999999997 L 14.522946533203125 1.5928124999999997 L 14.575446533203124 1.5928124999999997 L 14.575446533203124 2.0788124999999997 L 14.882946533203125 2.0788124999999997 L 14.882946533203125 2.1253124999999997 L 14.522946533203125 2.1253124999999997 M 14.961327392578125 2.1253124999999997 L 14.961327392578125 1.5928124999999997 L 15.013827392578124 1.5928124999999997 L 15.013827392578124 2.0788124999999997 L 15.321327392578125 2.0788124999999997 L 15.321327392578125 2.1253124999999997 L 14.961327392578125 2.1253124999999997 M 15.757458251953125 2.0788124999999997 L 15.757458251953125 2.1253124999999997 L 15.399708251953125 2.1253124999999997 L 15.399708251953125 1.5928124999999997 L 15.750708251953125 1.5928124999999997 L 15.750708251953125 1.6393124999999997 L 15.452208251953124 1.6393124999999997 L 15.452208251953124 1.8313124999999997 L 15.712458251953125 1.8313124999999997 L 15.712458251953125 1.8755624999999998 L 15.452208251953124 1.8755624999999998 L 15.452208251953124 2.0788124999999997 L 15.757458251953125 2.0788124999999997 M 16.07358984375 2.0818125 Q 16.123839843749998 2.0818125 16.15721484375 2.0626874999999996 Q 16.19058984375 2.0435624999999997 16.21046484375 2.0124375 Q 16.23033984375 1.9813124999999996 16.23821484375 1.9415624999999996 Q 16.24608984375 1.9018124999999997 16.24608984375 1.8613124999999997 L 16.24608984375 1.5928124999999997 L 16.29858984375 1.5928124999999997 L 16.29858984375 1.8613124999999997 Q 16.29858984375 1.9153124999999998 16.28658984375 1.9636874999999998 Q 16.27458984375 2.0120625 16.24796484375 2.0488125 Q 16.22133984375 2.0855624999999995 16.17858984375 2.1073125 Q 16.13583984375 2.1290625 16.07433984375 2.1290625 Q 16.01133984375 2.1290625 15.96821484375 2.1061875 Q 15.92508984375 2.0833125 15.89883984375 2.0458125 Q 15.87258984375 2.0083124999999997 15.861339843749999 1.9603124999999997 Q 15.85008984375 1.9123124999999996 15.85008984375 1.8613124999999997 L 15.85008984375 1.5928124999999997 L 15.90183984375 1.5928124999999997 L 15.90183984375 1.8613124999999997 Q 15.90183984375 1.9033124999999997 15.910089843749999 1.9430624999999997 Q 15.91833984375 1.9828124999999996 15.93821484375 2.0135625 Q 15.958089843749999 2.0443124999999998 15.99108984375 2.0630624999999996 Q 16.02408984375 2.0818125 16.07358984375 2.0818125 M 16.424968505859372 2.1253124999999997 L 16.424968505859372 1.5928124999999997 L 16.649968505859373 1.5928124999999997 Q 16.684468505859375 1.5928124999999997 16.713343505859374 1.6074374999999996 Q 16.742218505859373 1.6220624999999997 16.763218505859374 1.6456874999999997 Q 16.78421850585937 1.6693124999999998 16.795843505859374 1.6993124999999998 Q 16.807468505859372 1.7293124999999998 16.807468505859372 1.7600624999999996 Q 16.807468505859372 1.7893124999999996 16.798843505859374 1.8159374999999998 Q 16.79021850585937 1.8425624999999997 16.774843505859373 1.8639374999999996 Q 16.759468505859374 1.8853124999999997 16.737718505859373 1.8999374999999996 Q 16.715968505859372 1.9145624999999997 16.68896850585937 1.9198124999999997 L 16.819468505859373 2.1253124999999997 L 16.760218505859374 2.1253124999999997 L 16.634968505859373 1.9288124999999998 L 16.477468505859374 1.9288124999999998 L 16.477468505859374 2.1253124999999997 L 16.424968505859372 2.1253124999999997 M 16.477468505859374 1.8823124999999998 L 16.651468505859373 1.8823124999999998 Q 16.674718505859374 1.8823124999999998 16.693843505859373 1.8721874999999997 Q 16.712968505859372 1.8620624999999997 16.726468505859373 1.8448124999999997 Q 16.739968505859373 1.8275624999999998 16.747468505859374 1.8058124999999996 Q 16.754968505859374 1.7840624999999997 16.754968505859374 1.7600624999999996 Q 16.754968505859374 1.7360624999999996 16.74634350585937 1.7139374999999997 Q 16.737718505859373 1.6918124999999997 16.723093505859374 1.6753124999999998 Q 16.708468505859372 1.6588124999999998 16.688593505859373 1.6490624999999997 Q 16.668718505859374 1.6393124999999997 16.646968505859373 1.6393124999999997 L 16.477468505859374 1.6393124999999997 L 16.477468505859374 1.8823124999999998 M 17.273604858398432 2.0788124999999997 L 17.273604858398432 2.1253124999999997 L 16.915854858398433 2.1253124999999997 L 16.915854858398433 1.5928124999999997 L 17.266854858398435 1.5928124999999997 L 17.266854858398435 1.6393124999999997 L 16.968354858398435 1.6393124999999997 L 16.968354858398435 1.8313124999999997 L 17.228604858398434 1.8313124999999997 L 17.228604858398434 1.8755624999999998 L 16.968354858398435 1.8755624999999998 L 16.968354858398435 2.0788124999999997 L 17.273604858398432 2.0788124999999997 M 17.87736511230468 1.6925624999999997 Q 17.85486511230468 1.6670624999999997 17.81736511230468 1.6513124999999997 Q 17.77986511230468 1.6355624999999998 17.731865112304682 1.6355624999999998 Q 17.66136511230468 1.6355624999999998 17.62911511230468 1.6621874999999997 Q 17.59686511230468 1.6888124999999996 17.59686511230468 1.7345624999999998 Q 17.59686511230468 1.7585624999999996 17.60549011230468 1.7739374999999997 Q 17.61411511230468 1.7893124999999996 17.63211511230468 1.8005624999999998 Q 17.65011511230468 1.8118124999999998 17.67824011230468 1.8200624999999997 Q 17.70636511230468 1.8283124999999998 17.74461511230468 1.8365624999999997 Q 17.78736511230468 1.8455624999999998 17.82149011230468 1.8568124999999998 Q 17.85561511230468 1.8680624999999997 17.87961511230468 1.8849374999999997 Q 17.90361511230468 1.9018124999999997 17.916365112304682 1.9258124999999997 Q 17.92911511230468 1.9498124999999997 17.92911511230468 1.9858124999999998 Q 17.92911511230468 2.0225625 17.914865112304682 2.0495624999999995 Q 17.90061511230468 2.0765624999999996 17.87511511230468 2.0945625 Q 17.84961511230468 2.1125624999999997 17.81436511230468 2.1211874999999996 Q 17.77911511230468 2.1298125 17.73711511230468 2.1298125 Q 17.61336511230468 2.1298125 17.52336511230468 2.0525624999999996 L 17.54961511230468 2.0098125 Q 17.56386511230468 2.0248125 17.58374011230468 2.0383124999999995 Q 17.60361511230468 2.0518124999999996 17.62799011230468 2.0619374999999995 Q 17.65236511230468 2.0720625 17.68011511230468 2.0776874999999997 Q 17.70786511230468 2.0833125 17.73861511230468 2.0833125 Q 17.80236511230468 2.0833125 17.83799011230468 2.0604375 Q 17.87361511230468 2.0375624999999995 17.87361511230468 1.9910624999999997 Q 17.87361511230468 1.9663124999999997 17.86349011230468 1.9494374999999997 Q 17.85336511230468 1.9325624999999997 17.83311511230468 1.9201874999999997 Q 17.81286511230468 1.9078124999999997 17.78286511230468 1.8988124999999998 Q 17.75286511230468 1.8898124999999997 17.71311511230468 1.8808124999999998 Q 17.67111511230468 1.8710624999999996 17.639615112304682 1.8605624999999997 Q 17.60811511230468 1.8500624999999997 17.58636511230468 1.8343124999999998 Q 17.56461511230468 1.8185624999999996 17.55374011230468 1.7964374999999997 Q 17.542865112304682 1.7743124999999997 17.542865112304682 1.7420624999999996 Q 17.542865112304682 1.7053124999999998 17.55674011230468 1.6764374999999996 Q 17.57061511230468 1.6475624999999998 17.59611511230468 1.6284374999999998 Q 17.62161511230468 1.6093124999999997 17.65611511230468 1.5991874999999998 Q 17.69061511230468 1.5890624999999998 17.732615112304682 1.5890624999999998 Q 17.78586511230468 1.5890624999999998 17.82749011230468 1.6051874999999995 Q 17.86911511230468 1.6213124999999997 17.90286511230468 1.6505624999999997 L 17.87736511230468 1.6925624999999997 M 18.236986083984366 2.1290625 Q 18.181486083984367 2.1290625 18.135361083984368 2.1061875 Q 18.089236083984368 2.0833125 18.056236083984366 2.0454375 Q 18.023236083984365 2.0075624999999997 18.005236083984364 1.9588124999999996 Q 17.987236083984367 1.9100624999999998 17.987236083984367 1.8590624999999998 Q 17.987236083984367 1.8058124999999996 18.006361083984366 1.7570624999999997 Q 18.025486083984365 1.7083124999999997 18.059236083984366 1.6708124999999998 Q 18.092986083984368 1.6333124999999997 18.138736083984366 1.6111874999999998 Q 18.184486083984368 1.5890624999999998 18.237736083984366 1.5890624999999998 Q 18.293236083984365 1.5890624999999998 18.339361083984365 1.6126874999999998 Q 18.385486083984365 1.6363124999999998 18.418111083984368 1.6745624999999997 Q 18.450736083984367 1.7128124999999996 18.468736083984368 1.7611874999999997 Q 18.486736083984365 1.8095624999999997 18.486736083984365 1.8598124999999996 Q 18.486736083984365 1.9130624999999997 18.467611083984366 1.9618124999999997 Q 18.448486083984367 2.0105625 18.415111083984367 2.0476875 Q 18.381736083984364 2.0848124999999995 18.335986083984366 2.1069375 Q 18.290236083984365 2.1290625 18.236986083984366 2.1290625 M 18.039736083984366 1.8590624999999998 Q 18.039736083984366 1.9025624999999997 18.053986083984366 1.9426874999999997 Q 18.068236083984367 1.9828124999999996 18.094486083984368 2.0139375 Q 18.120736083984365 2.0450625 18.156736083984367 2.0634374999999996 Q 18.192736083984364 2.0818125 18.236986083984366 2.0818125 Q 18.281986083984368 2.0818125 18.318736083984366 2.0623124999999995 Q 18.355486083984367 2.0428124999999997 18.380986083984364 2.0113125 Q 18.406486083984365 1.9798124999999998 18.420361083984368 1.9400624999999998 Q 18.434236083984366 1.9003124999999996 18.434236083984366 1.8590624999999998 Q 18.434236083984366 1.8155624999999997 18.419611083984368 1.7754374999999998 Q 18.404986083984365 1.7353124999999996 18.378736083984364 1.7045624999999998 Q 18.352486083984367 1.6738124999999997 18.316486083984366 1.6554374999999997 Q 18.280486083984368 1.6370624999999996 18.236986083984366 1.6370624999999996 Q 18.191986083984364 1.6370624999999996 18.155236083984367 1.6561874999999997 Q 18.118486083984365 1.6753124999999998 18.092986083984368 1.7068124999999998 Q 18.067486083984367 1.7383124999999997 18.053611083984364 1.7780624999999997 Q 18.039736083984366 1.8178124999999996 18.039736083984366 1.8590624999999998 M 18.551593505859366 1.8553124999999997 Q 18.551593505859366 1.8073124999999997 18.568468505859364 1.7596874999999996 Q 18.585343505859363 1.7120624999999996 18.617593505859364 1.6745624999999997 Q 18.649843505859366 1.6370624999999996 18.697093505859364 1.6134374999999999 Q 18.744343505859366 1.5898124999999999 18.804343505859364 1.5898124999999999 Q 18.875593505859364 1.5898124999999999 18.926218505859364 1.6220624999999997 Q 18.976843505859364 1.6543124999999996 19.000843505859365 1.7060624999999998 L 18.959593505859363 1.7315624999999997 Q 18.946843505859363 1.7053124999999998 18.928468505859364 1.6873124999999998 Q 18.910093505859365 1.6693124999999998 18.889093505859364 1.6580624999999998 Q 18.868093505859363 1.6468124999999998 18.845593505859366 1.6419374999999996 Q 18.823093505859365 1.6370624999999996 18.801343505859364 1.6370624999999996 Q 18.753343505859366 1.6370624999999996 18.716593505859365 1.6565624999999997 Q 18.679843505859363 1.6760624999999998 18.654718505859364 1.7075624999999997 Q 18.629593505859365 1.7390624999999997 18.616843505859364 1.7784374999999997 Q 18.604093505859364 1.8178124999999996 18.604093505859364 1.8583124999999998 Q 18.604093505859364 1.9025624999999997 18.619468505859363 1.9430624999999997 Q 18.634843505859365 1.9835624999999997 18.661468505859364 2.0146874999999995 Q 18.688093505859364 2.0458125 18.724468505859363 2.0641874999999996 Q 18.760843505859363 2.0825625 18.803593505859364 2.0825625 Q 18.826093505859365 2.0825625 18.849718505859364 2.0769374999999997 Q 18.873343505859363 2.0713125 18.895468505859363 2.0589375 Q 18.917593505859365 2.0465625 18.936343505859366 2.0281874999999996 Q 18.955093505859363 2.0098125 18.967843505859364 1.9835624999999997 L 19.011343505859365 2.0060624999999996 Q 18.998593505859365 2.0360625 18.975343505859364 2.0589375 Q 18.952093505859363 2.0818125 18.923593505859365 2.0975624999999996 Q 18.895093505859364 2.1133124999999997 18.863218505859365 2.1215624999999996 Q 18.831343505859365 2.1298125 18.800593505859364 2.1298125 Q 18.745843505859366 2.1298125 18.700093505859364 2.1058125 Q 18.654343505859366 2.0818125 18.621343505859365 2.0431874999999997 Q 18.588343505859363 2.0045624999999996 18.569968505859364 1.9554374999999997 Q 18.551593505859366 1.9063124999999996 18.551593505859366 1.8553124999999997 M 19.102449096679674 2.1253124999999997 L 19.102449096679674 1.5928124999999997 L 19.154949096679676 1.5928124999999997 L 19.154949096679676 2.1253124999999997 L 19.102449096679674 2.1253124999999997 M 19.480063476562485 1.5200624999999997 L 19.446313476562487 1.5073124999999998 L 19.490563476562485 1.4375624999999999 L 19.544563476562487 1.4375624999999999 L 19.480063476562485 1.5200624999999997 M 19.647313476562484 2.0788124999999997 L 19.647313476562484 2.1253124999999997 L 19.289563476562485 2.1253124999999997 L 19.289563476562485 1.5928124999999997 L 19.640563476562487 1.5928124999999997 L 19.640563476562487 1.6393124999999997 L 19.342063476562487 1.6393124999999997 L 19.342063476562487 1.8313124999999997 L 19.602313476562486 1.8313124999999997 L 19.602313476562486 1.8755624999999998 L 19.342063476562487 1.8755624999999998 L 19.342063476562487 2.0788124999999997 L 19.647313476562484 2.0788124999999997 M 20.125445068359358 1.6393124999999997 L 19.935695068359358 1.6393124999999997 L 19.935695068359358 2.1253124999999997 L 19.88319506835936 2.1253124999999997 L 19.88319506835936 1.6393124999999997 L 19.69344506835936 1.6393124999999997 L 19.69344506835936 1.5928124999999997 L 20.125445068359358 1.5928124999999997 L 20.125445068359358 1.6393124999999997 M 20.39655908203123 1.5200624999999997 L 20.362809082031234 1.5073124999999998 L 20.407059082031232 1.4375624999999999 L 20.461059082031234 1.4375624999999999 L 20.39655908203123 1.5200624999999997 M 20.56380908203123 2.0788124999999997 L 20.56380908203123 2.1253124999999997 L 20.20605908203123 2.1253124999999997 L 20.20605908203123 1.5928124999999997 L 20.557059082031234 1.5928124999999997 L 20.557059082031234 1.6393124999999997 L 20.258559082031233 1.6393124999999997 L 20.258559082031233 1.8313124999999997 L 20.518809082031233 1.8313124999999997 L 20.518809082031233 1.8755624999999998 L 20.258559082031233 1.8755624999999998 L 20.258559082031233 2.0788124999999997 L 20.56380908203123 2.0788124999999997"
        fill="#1d212d"
        fill-rule="nonzero"
      ></path>
    </g>
    <g clip-path="url(#SvgjsClipPath1005)">
      <path
        d=" M 7.205645351624928 -6.414295583258475 L 13.390420322203198 -6.414295583258475 L 13.390420322203198 -0.2704793873197957 L 7.205645351624928 -0.2704793873197957 Z"
        fill="#1d212d"
        transform="matrix(1,0,0,1,0,0)"
        fill-rule="nonzero"
        mask="url(#maskedMgText-e62abae2-9132-4195-b47f-ead5ea19bc97)"
      ></path>
    </g>
  </g>
  <defs>
    <clipPath id="SvgjsClipPath1005">
      <path
        d=" M 7.205645351624927 -6.434774970578271 h 6.184774970578271 v 6.184774970578271 h -6.184774970578271 Z"
      ></path>
    </clipPath>
    <mask id="maskedMgText-e62abae2-9132-4195-b47f-ead5ea19bc97">
      <path
        d=" M 13.390420322203198 -3.3423874852891355 C 13.390420322203198 -1.6345088814537228 12.005911440749475 -0.25 10.298032836914064 -0.25 C 8.59015423307865 -0.25 7.205645351624928 -1.6345088814537228 7.205645351624928 -3.3423874852891355 C 7.205645351624928 -5.050266089124548 8.59015423307865 -6.434774970578271 10.298032836914064 -6.434774970578271 C 12.005911440749475 -6.434774970578271 13.390420322203198 -5.050266089124548 13.390420322203198 -3.3423874852891355 Z"
        fill="#ffffff"
        transform="matrix(1,0,0,1,0,0)"
        fill-rule="nonzero"
      ></path>
      <path
        d=" M 8.878447712326624 -4.191673613495355 L 10.22968659176818 -4.191673613495355 L 10.22968659176818 -3.6124111751277885 L 9.864426330824609 -3.6124111751277885 L 9.864426330824609 -3.8533036785108186 L 9.428578964238568 -3.8533036785108186 L 9.428578964238568 -3.518295034271162 L 9.76582846897481 -3.518295034271162 L 9.76582846897481 -3.1933702622661446 L 9.428578964238568 -3.1933702622661446 L 9.428578964238568 -2.8000992451152436 L 9.864426330824609 -2.8000992451152436 L 9.864426330824609 -3.101494981906105 L 10.22968659176818 -3.101494981906105 L 10.22968659176818 -2.4931013570829164 L 8.878447712326624 -2.4931013570829164 L 8.878447712326624 -2.8000992451152436 L 9.056596121805237 -2.8000992451152436 L 9.056596121805237 -3.8533036785108186 L 8.878447712326624 -3.8533036785108186 L 8.878447712326624 -4.191673613495355"
        fill="NA"
        transform="matrix(1,0,0,1,0,0)"
        fill-rule="nonzero"
      ></path>
      <path
        d=" M 11.717617961501501 -4.191673613495355 L 10.366379082059945 -4.191673613495355 L 10.366379082059945 -3.6124111751277885 L 10.731639343003517 -3.6124111751277885 L 10.731639343003517 -3.8533036785108186 L 11.167486709589557 -3.8533036785108186 L 11.167486709589557 -3.518295034271162 L 10.830237204853315 -3.518295034271162 L 10.830237204853315 -3.1933702622661446 L 11.167486709589557 -3.1933702622661446 L 11.167486709589557 -2.8000992451152436 L 10.731639343003517 -2.8000992451152436 L 10.731639343003517 -3.101494981906105 L 10.366379082059945 -3.101494981906105 L 10.366379082059945 -2.4931013570829164 L 11.717617961501501 -2.4931013570829164 L 11.717617961501501 -2.8000992451152436 L 11.539469552022888 -2.8000992451152436 L 11.539469552022888 -3.8533036785108186 L 11.717617961501501 -3.8533036785108186 L 11.717617961501501 -4.191673613495355"
        fill="NA"
        transform="matrix(1,0,0,1,0,0)"
        fill-rule="nonzero"
      ></path>
    </mask>
  </defs>
</svg>