<svg width="15" height="16" viewBox="0 0 15 16" fill="none" xmlns="http://www.w3.org/2000/svg">
<path d="M14.5607 4.35685L13.2989 1.17706C13.2484 1.02567 13.097 0.949975 12.9456 0.949975L8.75623 0.949799H1.84136C1.68996 0.949799 1.53857 1.05067 1.48805 1.17689L0.226215 4.35668C0.175692 4.48289 0.201042 4.60911 0.276738 4.70998C0.352435 4.81085 0.453481 4.88672 0.579525 4.88672H5.90448C6.1064 4.88672 6.25779 4.73533 6.28296 4.53342L6.30813 4.38202H8.50369L8.52886 4.53342C8.55403 4.73533 8.7056 4.88672 8.90734 4.88672H14.2075C14.3337 4.88672 14.4599 4.8362 14.5103 4.70998C14.5862 4.60911 14.6113 4.48307 14.5608 4.35685H14.5607ZM5.5512 4.12976H1.13476L2.09381 1.70694H5.77846L5.5512 4.12976ZM9.23567 4.12976L9.00858 1.70694H12.6932L13.6523 4.12976H9.23567ZM14.2073 4.12976H0.579467C0.37755 4.12976 0.200987 4.3065 0.200987 4.50824V15.2086C0.200987 15.4105 0.37773 15.5871 0.579467 15.5871H14.2073C14.4092 15.5871 14.5858 15.4104 14.5858 15.2086L14.586 4.50824C14.586 4.28115 14.4092 4.12976 14.2073 4.12976ZM13.8288 14.8301H0.95809V4.88686H5.55118V11.2213L7.39342 9.95945L9.23566 11.2213V4.88686H13.8287L13.8288 14.8301Z" fill="black"/>
</svg>
