<svg width="304" height="218" viewBox="0 0 304 218" fill="none" xmlns="http://www.w3.org/2000/svg">
<path d="M85.7778 3H36.1111C27.3295 3 18.9076 5.48174 12.698 9.89926C6.48848 14.3168 3 20.3082 3 26.5556V61.8889M301 61.8889V26.5556C301 20.3082 297.512 14.3168 291.302 9.89926C285.092 5.48174 276.67 3 267.889 3H218.222M218.222 215H267.889C276.67 215 285.092 212.518 291.302 208.101C297.512 203.683 301 197.692 301 191.444V156.111M3 156.111V191.444C3 197.692 6.48848 203.683 12.698 208.101C18.9076 212.518 27.3295 215 36.1111 215H85.7778" stroke="#D9D9D9" stroke-width="5" stroke-linecap="round" stroke-linejoin="round"/>
</svg>
