<svg width="16" height="16" viewBox="0 0 16 16" fill="none" xmlns="http://www.w3.org/2000/svg">
<g clip-path="url(#clip0_47_64)">
<path d="M8.36035 9.46857C9.39589 9.46857 10.2354 8.6291 10.2354 7.59357C10.2354 6.55803 9.39589 5.71857 8.36035 5.71857C7.32482 5.71857 6.48535 6.55803 6.48535 7.59357C6.48535 8.6291 7.32482 9.46857 8.36035 9.46857Z" stroke="black" stroke-linecap="round" stroke-linejoin="round"/>
<path d="M12.9854 9.46857C12.9022 9.65708 12.8773 9.86619 12.9141 10.0689C12.9509 10.2717 13.0475 10.4588 13.1916 10.6061L13.2291 10.6436C13.3453 10.7597 13.4375 10.8975 13.5004 11.0493C13.5633 11.201 13.5957 11.3637 13.5957 11.5279C13.5957 11.6922 13.5633 11.8549 13.5004 12.0066C13.4375 12.1584 13.3453 12.2962 13.2291 12.4123C13.113 12.5285 12.9751 12.6207 12.8234 12.6836C12.6717 12.7465 12.509 12.7789 12.3447 12.7789C12.1805 12.7789 12.0178 12.7465 11.8661 12.6836C11.7143 12.6207 11.5764 12.5285 11.4604 12.4123L11.4229 12.3748C11.2756 12.2307 11.0885 12.1341 10.8857 12.0973C10.683 12.0606 10.4739 12.0854 10.2854 12.1686C10.1005 12.2478 9.94284 12.3793 9.83179 12.547C9.72075 12.7147 9.66115 12.9112 9.66035 13.1123V13.2186C9.66035 13.5501 9.52865 13.868 9.29423 14.1024C9.05981 14.3369 8.74187 14.4686 8.41035 14.4686C8.07883 14.4686 7.76089 14.3369 7.52647 14.1024C7.29205 13.868 7.16035 13.5501 7.16035 13.2186V13.1623C7.15551 12.9554 7.08855 12.7548 6.96817 12.5865C6.84779 12.4182 6.67956 12.29 6.48535 12.2186C6.29684 12.1354 6.08773 12.1106 5.88498 12.1473C5.68224 12.1841 5.49515 12.2807 5.34785 12.4248L5.31035 12.4623C5.19426 12.5785 5.0564 12.6707 4.90465 12.7336C4.7529 12.7965 4.59025 12.8289 4.42598 12.8289C4.26171 12.8289 4.09905 12.7965 3.9473 12.7336C3.79555 12.6707 3.65769 12.5785 3.5416 12.4623C3.42538 12.3462 3.33318 12.2084 3.27028 12.0566C3.20737 11.9049 3.17499 11.7422 3.17499 11.5779C3.17499 11.4137 3.20737 11.251 3.27028 11.0993C3.33318 10.9475 3.42538 10.8097 3.5416 10.6936L3.5791 10.6561C3.72319 10.5088 3.81984 10.3217 3.8566 10.1189C3.89337 9.91619 3.86855 9.70708 3.78535 9.51857C3.70612 9.33371 3.57457 9.17606 3.40689 9.06501C3.23921 8.95396 3.04272 8.89437 2.8416 8.89357H2.73535C2.40383 8.89357 2.08589 8.76187 1.85147 8.52745C1.61705 8.29303 1.48535 7.97509 1.48535 7.64357C1.48535 7.31205 1.61705 6.9941 1.85147 6.75968C2.08589 6.52526 2.40383 6.39357 2.73535 6.39357H2.7916C2.99847 6.38873 3.1991 6.32177 3.36741 6.20139C3.53572 6.08101 3.66392 5.91278 3.73535 5.71857C3.81855 5.53006 3.84337 5.32095 3.8066 5.1182C3.76984 4.91545 3.67319 4.72837 3.5291 4.58107L3.4916 4.54357C3.37538 4.42748 3.28318 4.28961 3.22028 4.13787C3.15737 3.98612 3.12499 3.82346 3.12499 3.65919C3.12499 3.49492 3.15737 3.33226 3.22028 3.18052C3.28318 3.02877 3.37538 2.89091 3.4916 2.77482C3.60769 2.6586 3.74555 2.5664 3.8973 2.50349C4.04905 2.44059 4.21171 2.40821 4.37598 2.40821C4.54025 2.40821 4.7029 2.44059 4.85465 2.50349C5.0064 2.5664 5.14426 2.6586 5.26035 2.77482L5.29785 2.81232C5.44515 2.9564 5.63224 3.05306 5.83498 3.08982C6.03773 3.12658 6.24684 3.10176 6.43535 3.01857H6.48535C6.67021 2.93934 6.82786 2.80779 6.93891 2.64011C7.04996 2.47243 7.10955 2.27593 7.11035 2.07482V1.96857C7.11035 1.63705 7.24205 1.3191 7.47647 1.08468C7.71089 0.850263 8.02883 0.718567 8.36035 0.718567C8.69187 0.718567 9.00981 0.850263 9.24423 1.08468C9.47865 1.3191 9.61035 1.63705 9.61035 1.96857V2.02482C9.61115 2.22593 9.67075 2.42243 9.78179 2.59011C9.89284 2.75779 10.0505 2.88934 10.2354 2.96857C10.4239 3.05176 10.633 3.07658 10.8357 3.03982C11.0385 3.00306 11.2256 2.9064 11.3729 2.76232L11.4104 2.72482C11.5264 2.6086 11.6643 2.5164 11.8161 2.45349C11.9678 2.39059 12.1305 2.35821 12.2947 2.35821C12.459 2.35821 12.6217 2.39059 12.7734 2.45349C12.9251 2.5164 13.063 2.6086 13.1791 2.72482C13.2953 2.84091 13.3875 2.97877 13.4504 3.13052C13.5133 3.28226 13.5457 3.44492 13.5457 3.60919C13.5457 3.77346 13.5133 3.93612 13.4504 4.08787C13.3875 4.23961 13.2953 4.37748 13.1791 4.49357L13.1416 4.53107C12.9975 4.67837 12.9009 4.86545 12.8641 5.0682C12.8273 5.27095 12.8522 5.48006 12.9354 5.66857V5.71857C13.0146 5.90342 13.1461 6.06108 13.3138 6.17212C13.4815 6.28317 13.678 6.34276 13.8791 6.34357H13.9854C14.3169 6.34357 14.6348 6.47526 14.8692 6.70968C15.1037 6.9441 15.2354 7.26205 15.2354 7.59357C15.2354 7.92509 15.1037 8.24303 14.8692 8.47745C14.6348 8.71187 14.3169 8.84357 13.9854 8.84357H13.9291C13.728 8.84437 13.5315 8.90396 13.3638 9.01501C13.1961 9.12606 13.0646 9.28371 12.9854 9.46857Z" stroke="black" stroke-linecap="round" stroke-linejoin="round"/>
</g>
<defs>
<clipPath id="clip0_47_64">
<rect width="15" height="15" fill="white" transform="translate(0.860352 0.0935669)"/>
</clipPath>
</defs>
</svg>
