<svg width="8" height="17" viewBox="0 0 8 17" fill="none" xmlns="http://www.w3.org/2000/svg">
<path fill-rule="evenodd" clip-rule="evenodd" d="M1.90803 12.9298C1.83562 12.9298 1.76756 12.8936 1.71692 12.8296C1.66574 12.7703 1.6358 12.6878 1.6358 12.6002C1.6358 12.554 1.64723 12.5125 1.65703 12.4742C1.67228 12.4327 1.69188 12.3944 1.71692 12.3634C1.82092 12.2448 2.00168 12.2448 2.10405 12.3634C2.1525 12.4274 2.18027 12.5125 2.18027 12.6002C2.18027 12.6852 2.1525 12.7703 2.10405 12.8296C2.07846 12.8626 2.04633 12.8889 2.01257 12.9041C1.97827 12.9147 1.94669 12.9298 1.90803 12.9298ZM1.90816 11.6146C1.83574 11.6146 1.76768 11.5784 1.71704 11.5144C1.66586 11.4551 1.63592 11.3727 1.63592 11.285C1.63592 11.2388 1.64735 11.1973 1.65715 11.159C1.6724 11.1175 1.692 11.0786 1.71704 11.0483C1.82104 10.9296 2.00181 10.9296 2.10417 11.0483C2.15263 11.1122 2.18039 11.1973 2.18039 11.285C2.18039 11.37 2.15263 11.4551 2.10417 11.5144C2.07858 11.5474 2.04645 11.5731 2.0127 11.5889C1.97839 11.5995 1.94681 11.6146 1.90816 11.6146ZM1.90817 10.2994C1.83575 10.2994 1.76769 10.2631 1.71706 10.1992C1.66588 10.1398 1.63593 10.0574 1.63593 9.9697C1.63593 9.87673 1.67023 9.79695 1.71706 9.733C1.82105 9.61431 2.00182 9.61431 2.10418 9.733C2.15264 9.79695 2.18041 9.88201 2.18041 9.9697C2.18041 10.0548 2.15264 10.1398 2.10418 10.1992C2.07859 10.2321 2.04647 10.2585 2.01271 10.2737C1.97841 10.2842 1.94683 10.2994 1.90817 10.2994ZM1.90805 8.98467C1.83563 8.98467 1.76757 8.94841 1.71694 8.88445C1.69352 8.85347 1.67229 8.81984 1.65704 8.77896C1.64452 8.74006 1.63799 8.69852 1.63581 8.655C1.63581 8.56204 1.67011 8.48226 1.71694 8.4183C1.81658 8.29962 2.0017 8.29962 2.10406 8.4183C2.12529 8.45127 2.14871 8.49017 2.15905 8.52907C2.1743 8.56995 2.18029 8.60885 2.18029 8.655C2.18029 8.6939 2.1743 8.74006 2.16558 8.77896C2.14871 8.81984 2.12747 8.85347 2.10406 8.88445C2.07847 8.91742 2.04634 8.9438 2.01259 8.95896C1.97829 8.97676 1.94671 8.98467 1.90805 8.98467ZM1.90798 7.669C1.87422 7.66636 1.83774 7.65581 1.80616 7.64328C1.74028 7.60702 1.68692 7.54306 1.65915 7.46262C1.64718 7.42438 1.63792 7.38284 1.63574 7.33933C1.63574 7.24636 1.67004 7.16658 1.71905 7.10262C1.78874 7.00966 1.91451 6.98394 2.01252 7.03537C2.05063 7.04856 2.0784 7.07625 2.10399 7.10262C2.1274 7.13559 2.14864 7.17449 2.15898 7.21339C2.17586 7.25427 2.18022 7.29317 2.18022 7.33933C2.18022 7.37823 2.17586 7.42438 2.16552 7.46262C2.14864 7.50416 2.1274 7.53779 2.10563 7.56878C2.0784 7.60175 2.04846 7.62746 2.01252 7.64328C1.97822 7.65383 1.94664 7.669 1.90798 7.669ZM5.73779 12.926H3.02118C2.87068 12.926 2.74952 12.7793 2.74952 12.597C2.74952 12.4174 2.87068 12.268 3.02118 12.268H5.73779C5.88883 12.268 6.00945 12.4174 6.00945 12.597C6.00945 12.7793 5.88883 12.926 5.73779 12.926ZM5.73788 11.6108H3.02127C2.87077 11.6108 2.74961 11.4641 2.74961 11.2818C2.74961 11.1022 2.87077 10.9529 3.02127 10.9529H5.73788C5.88892 10.9529 6.00954 11.1022 6.00954 11.2818C6.00954 11.4641 5.88892 11.6108 5.73788 11.6108ZM5.7379 10.2958H3.02129C2.87079 10.2958 2.74963 10.149 2.74963 9.9668C2.74963 9.78718 2.87079 9.63783 3.02129 9.63783H5.7379C5.88895 9.63783 6.00956 9.78718 6.00956 9.9668C6.00956 10.149 5.88895 10.2958 5.7379 10.2958ZM5.73809 8.98058H3.02148C2.87098 8.98058 2.74981 8.83386 2.74981 8.65161C2.74981 8.47199 2.87098 8.32264 3.02148 8.32264H5.73809C5.88913 8.32264 6.00975 8.47199 6.00975 8.65161C6.00975 8.83386 5.88913 8.98058 5.73809 8.98058ZM5.73805 7.66478H3.02144C2.87094 7.66478 2.74978 7.51806 2.74978 7.33581C2.74978 7.15619 2.87094 7.00684 3.02144 7.00684H5.73805C5.88909 7.00684 6.00971 7.15619 6.00971 7.33581C6.00971 7.51806 5.88909 7.66478 5.73805 7.66478Z" fill="#151921"/>
<path fill-rule="evenodd" clip-rule="evenodd" d="M3.83626 14.2406C3.87427 14.2406 3.915 14.2511 3.95084 14.2715L7.09435 16.0285V1.14567H0.578172V16.0285L3.72169 14.2715C3.75752 14.2511 3.79608 14.2406 3.83626 14.2406ZM7.36678 16.8731C7.32659 16.8731 7.28803 16.8626 7.25219 16.8422L3.83674 14.9337L0.421288 16.8422C0.336567 16.8908 0.238812 16.8836 0.160065 16.8218C0.0818614 16.7626 0.0351562 16.6574 0.0351562 16.5443V0.817079C0.0351562 0.634908 0.156264 0.488251 0.306698 0.488251H7.36678C7.51721 0.488251 7.63832 0.634908 7.63832 0.817079V16.5443C7.63832 16.7264 7.51721 16.8731 7.36678 16.8731Z" fill="#151921"/>
<path fill-rule="evenodd" clip-rule="evenodd" d="M3.83698 4.47511C3.87937 4.47511 3.92393 4.48827 3.96197 4.5113L4.35921 4.76334L4.28258 4.23097C4.26791 4.12305 4.2978 4.01512 4.36138 3.93813L4.682 3.56304L4.23802 3.48604C4.15108 3.47025 4.075 3.40115 4.03424 3.30573L3.83698 2.82009L3.63972 3.3031C3.59896 3.40115 3.52289 3.46762 3.43594 3.48604L2.99197 3.56304L3.31258 3.93813C3.37616 4.01512 3.40605 4.12305 3.39138 4.23097L3.31476 4.76334L3.712 4.5113C3.75004 4.48827 3.79242 4.47511 3.83698 4.47511ZM4.71961 5.69314C4.67507 5.69314 4.6327 5.68064 4.59468 5.65433L3.83694 5.17416L3.07921 5.65433C2.9885 5.71353 2.87769 5.70367 2.79513 5.63131C2.71039 5.55698 2.6702 5.43135 2.68703 5.30769L2.83098 4.29011L2.2199 3.56854C2.14603 3.48105 2.11833 3.35016 2.15037 3.23176C2.18188 3.11073 2.26661 3.02325 2.3709 3.00549L3.215 2.85683L3.59306 1.92871C3.68431 1.70573 3.98958 1.70573 4.08083 1.92871L4.45888 2.85683L5.30298 3.00549C5.39641 2.90024 5.53655 2.88248 5.64247 2.96668C5.74893 3.05153 5.7913 3.21597 5.74676 3.36002C5.70222 3.50408 5.57892 3.58893 5.45399 3.56854L4.84291 4.29011L4.98685 5.30769C5.00206 5.40569 4.97871 5.50304 4.92765 5.57737C4.87659 5.65236 4.8 5.69314 4.71961 5.69314Z" fill="#151921"/>
</svg>
